<?xml version="1.0" standalone="no"?>
<!DOCTYPE svg PUBLIC "-//W3C//DTD SVG 20010904//EN"
 "http://www.w3.org/TR/2001/REC-SVG-20010904/DTD/svg10.dtd">
<svg version="1.0" xmlns="http://www.w3.org/2000/svg"
 width="180.000000pt" height="112.000000pt" viewBox="0 0 180.000000 112.000000"
 preserveAspectRatio="xMidYMid meet">

<g transform="translate(0.000000,112.000000) scale(0.100000,-0.100000)"
fill="#000000" stroke="none">
<path d="M878 1029 c-28 -16 -23 -86 11 -153 l28 -57 -66 -34 c-37 -18 -92
-53 -122 -78 -29 -24 -77 -51 -105 -61 -62 -20 -162 -78 -187 -108 -10 -12
-17 -33 -15 -47 2 -18 -5 -33 -21 -47 -17 -14 -22 -27 -17 -39 5 -14 14 -17
51 -13 76 9 185 76 128 79 -30 2 59 18 104 18 33 1 45 6 54 22 11 22 8 84 -6
124 -4 12 9 3 35 -23 35 -37 41 -48 38 -80 -2 -29 -9 -40 -30 -50 -59 -28
-138 -145 -138 -203 0 -31 -1 -31 -18 -15 -18 15 -21 14 -65 -19 -61 -47 -76
-74 -51 -92 26 -19 62 -16 122 12 103 48 242 158 313 247 28 36 59 59 116 88
43 21 94 54 114 72 l37 33 38 -33 c22 -18 76 -52 121 -74 65 -32 93 -41 140
-42 47 -1 58 2 61 17 2 12 -9 23 -40 37 -24 12 -65 36 -92 55 -37 27 -59 35
-95 36 l-46 1 38 10 c40 11 45 19 22 38 -8 7 -15 25 -15 41 0 21 7 32 29 44
97 50 91 143 -12 197 -91 47 -257 20 -303 -50 -33 -51 -11 -113 51 -144 14 -7
11 -2 -7 14 -61 54 -56 104 17 145 56 32 109 30 182 -7 79 -40 100 -62 87 -97
-12 -35 -86 -73 -145 -75 -139 -2 -206 18 -234 72 -20 38 -19 58 5 105 24 47
15 58 -48 52 -50 -5 -49 0 5 18 28 10 37 18 35 32 -7 38 -64 56 -104 32z m77
-299 c8 -13 -20 -24 -41 -16 -20 8 -9 26 16 26 10 0 22 -5 25 -10z m-57 -37
c5 -17 -26 -29 -40 -15 -6 6 -7 15 -3 22 9 14 37 9 43 -7z m143 -10 c38 -23
37 -44 -5 -67 -39 -21 -68 -17 -106 14 l-25 20 30 25 c35 29 66 31 106 8z"/>
<path d="M1245 827 c-24 -18 -11 -37 25 -37 36 0 49 19 25 37 -11 7 -22 13
-25 13 -3 0 -14 -6 -25 -13z"/>
</g>
</svg>
