<svg width="303" height="47" viewBox="0 0 303 47" fill="none" xmlns="http://www.w3.org/2000/svg">
<path d="M55.0979 26.4136C52.6414 23.7072 50.0946 22.2809 45.2534 22.9996C47.3488 22.1012 49.4986 22.3146 49.4986 22.3146C49.5526 21.5958 49.4986 20.8547 47.8006 19.5182C48.5047 18.1143 47.8546 17.0027 47.8546 17.0027C50.6542 16.0369 52.6954 14.2625 53.111 12.151C53.7614 8.66952 49.7148 5.5028 44.1152 5.09834C40.1236 4.81777 36.2219 5.96319 34.3068 7.98461C30.1163 12.488 34.56 15.947 38.3531 17.1262C35.752 16.9689 32.1573 15.7897 31.1098 13.2741C29.9178 10.388 31.6156 7.68127 32.7174 6.37855C32.7174 6.37855 31.9228 5.72718 31.2722 5.37916C31.2722 5.37916 28.7796 5.37916 26.829 5.97421C28.9784 4.26728 31.3809 4.35713 31.3809 4.35713C31.3809 3.63844 31.2722 2.68385 30.7306 1.93138C29.7552 0.696101 26.4314 0.482613 25.0046 2.24598C25.0225 2.22346 25.0587 2.20105 25.0768 2.18967C24.1737 3.52618 24.8783 8.46753 28.1298 11.9828C27.6782 12.1399 26.486 12.6677 25.7813 13.1058C21.8795 14.1951 15.6297 19.8777 15.6297 19.8777C10.5359 21.0905 1.68474 25.5941 2.87712 28.8281C2.93127 29.1652 3.12974 29.4459 3.41878 29.6707C2.91315 29.9177 2.42545 30.2321 1.91963 30.6026C-0.230043 32.1524 0.96195 34.5559 5.11659 33.3429C7.97094 32.5343 10.4636 31.0746 11.6739 29.9291C11.6739 29.9291 10.6804 29.3675 8.72957 29.4348C13.733 28.6935 14.9252 28.3792 17.0747 28.4128C18.5199 28.8509 18.5199 24.5608 18.5199 24.5608C18.5199 22.9099 18.1224 21.0793 16.5149 19.9001C18.7727 21.2703 21.7712 23.5725 21.5727 26.7058C21.428 28.7609 18.827 29.2888 18.827 29.2888C17.1834 31.1531 11.0236 36.6895 13.3357 41.193C13.3357 41.193 11.5839 39.5198 11.4934 38.7113C8.35016 40.8898 3.0939 44.5847 7.04968 45.955C11.8547 47.6058 26.7026 36.0046 29.8456 29.9738C36.0957 27.6378 39.8528 24.6619 41.3882 22.674C45.3621 27.5591 58.6026 33.2867 59.65 29.3C60.1015 27.4918 56.0012 27.4354 55.0979 26.4136ZM26.7026 19.1027C26.1607 19.4395 25.3117 19.4395 24.8059 19.1027C24.2638 18.7994 24.2638 18.2716 24.8059 17.9573C25.3119 17.6203 26.1607 17.6203 26.7026 17.9573C27.2082 18.2604 27.2082 18.7884 26.7026 19.1027ZM27.6055 16.1827C28.1476 15.8459 28.9967 15.8459 29.5026 16.1827C30.0438 16.486 30.0438 17.0251 29.5026 17.362C29.0147 17.6765 28.1657 17.6765 27.6055 17.362C27.1001 17.025 27.1001 16.4971 27.6055 16.1827ZM34.9573 21.4049L33.2055 22.4943C32.4107 23.0222 31.0559 23.0222 30.2069 22.4943L28.31 21.3151C27.5153 20.7874 27.5153 19.9787 28.31 19.4507L30.0623 18.3616C30.857 17.8673 32.2116 17.8673 33.061 18.3616L34.9573 19.5745C35.7522 20.0684 35.7522 20.9108 34.9573 21.4049ZM37.902 16.4635C34.307 14.8463 31.7964 11.6121 35.7522 8.81556C39.654 6.01914 43.1041 6.88399 46.5543 8.90541C48.7038 10.1745 51.8466 11.7017 49.6611 14.3183C47.4033 16.9577 41.5148 18.0471 37.902 16.4635Z" fill="#E0004D"/>
<path d="M61.6485 32.0221L63.7847 32.0056L63.4909 16.6275L61.3547 16.644L61.3365 15.6921L74.0192 15.5941L74.0374 16.546L71.9135 16.5625L72.2073 31.9405L74.3313 31.9241L74.3497 32.8883L61.667 32.9863L61.6485 32.0221ZM76.5301 31.9925L78.6663 31.976L78.4403 20.1496L76.3041 20.1661L76.2873 19.2873L85.6865 19.2147L85.7163 20.7769C85.9707 20.4576 86.2785 20.1704 86.6399 19.9153C87.0094 19.6602 87.4163 19.4455 87.8607 19.2711C88.3048 19.0887 88.7783 18.9508 89.2811 18.8574C89.7921 18.7639 90.3161 18.7151 90.8532 18.7109C91.96 18.7024 92.8742 18.8418 93.5959 19.1292C94.3256 19.4084 94.9031 19.8148 95.3284 20.3487C95.7535 20.8743 96.0548 21.5189 96.2322 22.2825C96.4094 23.038 96.5069 23.8835 96.5248 24.8192L96.6589 31.837L98.7951 31.8205L98.8119 32.6992L88.1921 32.7813L88.1753 31.9026L89.3959 31.8931L89.2618 24.8754C89.2458 24.0373 89.2084 23.354 89.1494 22.8255C89.0903 22.2889 88.9969 21.8705 88.8691 21.5704C88.7411 21.2622 88.5743 21.0519 88.3687 20.9395C88.1629 20.8191 87.9054 20.76 87.5961 20.7624C87.2869 20.7648 87.0155 20.832 86.782 20.964C86.5485 21.096 86.3526 21.2806 86.1944 21.5178C86.0443 21.755 85.9317 22.0366 85.8565 22.3627C85.7895 22.6887 85.7596 23.043 85.7669 23.4254L85.9292 31.9199L87.1377 31.9106L87.1545 32.7893L76.5469 32.8713L76.5301 31.9925ZM101.523 19.9712L99.3869 19.9877L99.3701 19.109L108.769 19.0363L108.92 26.9328C108.936 27.7709 108.974 28.4582 109.033 28.9949C109.092 29.5234 109.185 29.9418 109.313 30.25C109.441 30.5501 109.608 30.7604 109.814 30.8809C110.019 30.9932 110.277 31.0482 110.586 31.0458C110.895 31.0434 111.166 30.9762 111.4 30.8442C111.633 30.7122 111.825 30.5276 111.975 30.2905C112.134 30.0532 112.246 29.7716 112.313 29.4456C112.388 29.1195 112.422 28.7652 112.415 28.3828L112.253 19.8883L110.458 19.9022L110.442 19.0234L119.499 18.9534L119.742 31.6586L121.866 31.6422L121.882 32.5209L112.496 32.5935L112.466 31.0313C112.211 31.3506 111.899 31.6378 111.53 31.893C111.169 32.148 110.766 32.3668 110.322 32.5493C109.885 32.7235 109.412 32.8574 108.901 32.9508C108.398 33.0442 107.878 33.093 107.341 33.0972C106.226 33.1058 105.304 32.9664 104.574 32.6791C103.852 32.3999 103.279 31.9974 102.854 31.4717C102.429 30.9379 102.127 30.2933 101.95 29.5379C101.773 28.7824 101.675 27.9328 101.657 26.989L101.523 19.9712ZM124.716 19.792L122.58 19.8085L122.563 18.9297L124.699 18.9132C125.521 18.9069 126.255 18.7629 126.9 18.4812C127.554 18.1913 128.105 17.8209 128.552 17.3698C129.007 16.9106 129.351 16.3993 129.585 15.836C129.818 15.2727 129.929 14.7104 129.919 14.1489L131.872 14.1338L131.962 18.8571L135.892 18.8267L135.909 19.7055L131.979 19.7358L132.122 27.254C132.139 28.1246 132.197 28.8362 132.297 29.3888C132.406 29.9332 132.548 30.3593 132.725 30.6672C132.91 30.975 133.121 31.185 133.359 31.297C133.606 31.4009 133.875 31.4517 134.168 31.4495C134.453 31.4473 134.728 31.3841 134.995 31.26C135.261 31.1277 135.493 30.9225 135.691 30.6443C135.889 30.3579 136.045 29.9905 136.158 29.5421C136.272 29.0855 136.322 28.5277 136.309 27.8686C136.306 27.714 136.299 27.5554 136.288 27.3927C136.277 27.2219 136.261 27.0471 136.241 26.8682L137.267 26.8603C137.299 27.2669 137.318 27.637 137.325 27.9706C137.344 28.9877 137.218 29.8187 136.945 30.4637C136.68 31.1005 136.291 31.5999 135.777 31.9619C135.263 32.324 134.633 32.573 133.887 32.7089C133.149 32.8448 132.316 32.9164 131.388 32.9235C130.347 32.9316 129.425 32.837 128.624 32.6397C127.822 32.4425 127.145 32.1263 126.591 31.6911C126.037 31.2478 125.616 30.6774 125.326 29.9798C125.035 29.2822 124.881 28.433 124.862 27.4322L124.716 19.792ZM143.986 17.5313C143.514 17.535 143.058 17.4937 142.617 17.4076C142.175 17.3134 141.786 17.1658 141.448 16.965C141.111 16.756 140.837 16.4896 140.627 16.1657C140.418 15.8418 140.308 15.4439 140.299 14.972C140.29 14.5001 140.384 14.1006 140.582 13.7736C140.779 13.4384 141.042 13.1678 141.372 12.9618C141.702 12.7477 142.085 12.5942 142.523 12.5013C142.96 12.4003 143.415 12.3479 143.887 12.3443C144.351 12.3407 144.804 12.386 145.245 12.4803C145.686 12.5664 146.076 12.7139 146.413 12.9229C146.751 13.1237 147.024 13.3861 147.234 13.71C147.444 14.0338 147.553 14.4318 147.562 14.9037C147.571 15.3756 147.477 15.7791 147.28 16.1143C147.083 16.4413 146.819 16.7119 146.49 16.926C146.16 17.132 145.776 17.2856 145.339 17.3866C144.901 17.4795 144.45 17.5277 143.986 17.5313ZM138.613 31.5128L140.749 31.4963L140.523 19.6698L138.387 19.6863L138.37 18.8076L147.77 18.7349L148.012 31.4401L150.149 31.4236L150.165 32.3024L138.63 32.3915L138.613 31.5128ZM151.769 25.5031C151.749 24.4535 151.922 23.4838 152.287 22.5939C152.653 21.7041 153.212 20.9348 153.964 20.2861C154.717 19.6293 155.668 19.1174 156.816 18.7505C157.965 18.3754 159.312 18.1819 160.858 18.1699C162.405 18.158 163.755 18.3307 164.909 18.6879C166.072 19.037 167.042 19.5341 167.819 20.1791C168.596 20.8159 169.185 21.5763 169.584 22.4603C169.983 23.3442 170.193 24.311 170.213 25.3606C170.233 26.4102 170.061 27.3799 169.695 28.2698C169.329 29.1515 168.77 29.9207 168.018 30.5776C167.265 31.2263 166.314 31.7381 165.166 32.1132C164.025 32.4801 162.682 32.6695 161.136 32.6815C159.59 32.6934 158.235 32.5248 157.073 32.1758C155.91 31.8185 154.94 31.3215 154.163 30.6846C153.386 30.0396 152.797 29.2792 152.398 28.4034C151.999 27.5195 151.789 26.5527 151.769 25.5031ZM161.121 31.9248C161.431 31.9224 161.693 31.8186 161.909 31.6135C162.125 31.4084 162.297 31.0571 162.426 30.5597C162.555 30.0623 162.64 29.3985 162.681 28.5681C162.73 27.7295 162.742 26.6797 162.718 25.4185C162.694 24.1492 162.642 23.0998 162.561 22.2704C162.488 21.4328 162.377 20.7664 162.229 20.2711C162.082 19.7758 161.896 19.4273 161.672 19.2256C161.449 19.0239 161.182 18.9242 160.873 18.9266C160.556 18.9291 160.289 19.0329 160.073 19.238C159.857 19.4431 159.685 19.7944 159.556 20.2917C159.427 20.7891 159.338 21.4571 159.289 22.2957C159.248 23.1261 159.24 24.1759 159.264 25.4452C159.288 26.7064 159.337 27.7558 159.409 28.5934C159.49 29.4228 159.605 30.0851 159.753 30.5804C159.901 31.0757 160.086 31.4241 160.31 31.6259C160.533 31.8276 160.804 31.9272 161.121 31.9248ZM172.401 31.2517L174.537 31.2352L174.311 19.4087L172.175 19.4252L172.158 18.5465L181.558 18.4738L181.587 20.036C181.842 19.7167 182.15 19.4295 182.511 19.1744C182.881 18.9193 183.288 18.7046 183.732 18.5303C184.176 18.3478 184.649 18.2099 185.152 18.1165C185.663 18.023 186.187 17.9742 186.724 17.9701C187.831 17.9615 188.745 18.1009 189.467 18.3883C190.197 18.6675 190.774 19.074 191.2 19.6078C191.625 20.1334 191.926 20.7781 192.103 21.5416C192.281 22.2971 192.378 23.1427 192.396 24.0784L192.53 31.0961L194.666 31.0796L194.683 31.9584L184.063 32.0404L184.046 31.1617L185.267 31.1522L185.133 24.1345C185.117 23.2964 185.08 22.6131 185.021 22.0846C184.961 21.548 184.868 21.1296 184.74 20.8295C184.612 20.5213 184.445 20.311 184.24 20.1986C184.034 20.0782 183.777 20.0191 183.467 20.0215C183.158 20.0239 182.887 20.0911 182.653 20.2231C182.42 20.3551 182.224 20.5397 182.066 20.777C181.915 21.0141 181.803 21.2957 181.728 21.6218C181.661 21.9479 181.631 22.3021 181.638 22.6845L181.8 31.179L183.009 31.1697L183.026 32.0484L172.418 32.1304L172.401 31.2517ZM196.636 28.7451C196.624 28.1186 196.732 27.5807 196.959 27.1314C197.187 26.6739 197.513 26.2889 197.938 25.9764C198.363 25.6557 198.875 25.3995 199.474 25.2077C200.073 25.0078 200.737 24.8521 201.467 24.7406C202.206 24.6292 202.998 24.5539 203.844 24.5148C204.689 24.4675 205.568 24.4404 206.479 24.4334L206.466 23.7499C206.446 22.7084 206.357 21.875 206.199 21.2496C206.048 20.6242 205.823 20.1458 205.524 19.8144C205.233 19.4831 204.875 19.2702 204.45 19.1758C204.025 19.0733 203.531 19.0242 202.97 19.0286C202.669 19.0309 202.348 19.0578 202.007 19.1092C201.674 19.1606 201.378 19.2199 201.119 19.287C201.494 19.3248 201.842 19.4157 202.162 19.5597C202.482 19.7037 202.758 19.8847 202.99 20.1026C203.222 20.3205 203.402 20.5632 203.529 20.8308C203.664 21.0983 203.735 21.3704 203.74 21.647C203.747 21.9888 203.667 22.3108 203.502 22.6132C203.337 22.9156 203.106 23.1818 202.809 23.412C202.512 23.634 202.166 23.8116 201.77 23.9449C201.373 24.0781 200.947 24.1465 200.492 24.1501C200.036 24.1536 199.607 24.0918 199.206 23.9647C198.813 23.8375 198.464 23.6653 198.159 23.4479C197.861 23.2223 197.624 22.9597 197.448 22.66C197.271 22.3602 197.179 22.0395 197.173 21.6978C197.164 21.2421 197.278 20.8303 197.515 20.4623C197.761 20.0942 198.092 19.7702 198.51 19.4902C198.936 19.2021 199.436 18.9541 200.01 18.7463C200.592 18.5383 201.215 18.3667 201.88 18.2313C202.545 18.096 203.235 17.9971 203.95 17.9346C204.673 17.8639 205.392 17.8258 206.109 17.8203C207.378 17.8104 208.482 17.8914 209.422 18.0632C210.369 18.2268 211.156 18.5299 211.783 18.9727C212.418 19.4072 212.898 20.0097 213.222 20.7803C213.545 21.5428 213.719 22.5139 213.741 23.6937L213.839 28.8075C213.851 29.4177 213.921 29.8892 214.049 30.2218C214.186 30.5463 214.425 30.7072 214.766 30.7046C214.937 30.7032 215.075 30.6493 215.178 30.5427C215.29 30.4279 215.373 30.2808 215.426 30.1013C215.488 29.9218 215.529 29.714 215.549 29.4779C215.569 29.2417 215.576 29.0016 215.572 28.7575L215.549 27.5492L216.635 27.5408L216.658 28.7491C216.67 29.4 216.595 29.9499 216.433 30.3987C216.279 30.8475 215.997 31.2118 215.587 31.4916C215.186 31.7714 214.64 31.971 213.951 32.0902C213.269 32.2175 212.408 32.2852 211.366 32.2933C210.837 32.2974 210.34 32.2727 209.875 32.2194C209.419 32.1659 208.998 32.0715 208.612 31.9362C208.235 31.8007 207.906 31.6202 207.625 31.3945C207.344 31.1688 207.119 30.8857 206.95 30.5452C206.713 30.9214 206.393 31.229 205.991 31.4682C205.588 31.6991 205.152 31.8815 204.683 32.0153C204.213 32.1492 203.739 32.2383 203.26 32.2827C202.78 32.3352 202.341 32.363 201.943 32.3661C200.991 32.3735 200.179 32.278 199.508 32.0798C198.837 31.8896 198.29 31.6294 197.869 31.299C197.448 30.9686 197.139 30.5844 196.944 30.1465C196.748 29.7005 196.645 29.2333 196.636 28.7451ZM203.677 28.5564C203.688 29.1586 203.807 29.6459 204.034 30.0185C204.261 30.3829 204.627 30.5632 205.131 30.5593C205.554 30.556 205.901 30.4028 206.172 30.0996C206.443 29.7883 206.574 29.3763 206.564 28.8637L206.501 25.5562C205.915 25.5607 205.436 25.6173 205.063 25.726C204.691 25.8347 204.397 26.0078 204.182 26.2455C203.975 26.475 203.834 26.7812 203.76 27.1643C203.694 27.5472 203.666 28.0113 203.677 28.5564ZM219.879 19.0566L217.743 19.0731L217.726 18.1943L227.125 18.1217L227.276 26.0182C227.292 26.8563 227.33 27.5436 227.389 28.0802C227.448 28.6087 227.541 29.0271 227.669 29.3354C227.797 29.6355 227.964 29.8458 228.169 29.9662C228.375 30.0786 228.632 30.1336 228.942 30.1312C229.251 30.1288 229.522 30.0616 229.756 29.9296C229.989 29.7976 230.181 29.613 230.331 29.3758C230.489 29.1386 230.602 28.857 230.669 28.531C230.744 28.2049 230.778 27.8506 230.771 27.4682L230.609 18.9737L228.814 18.9875L228.797 18.1088L237.855 18.0388L238.098 30.744L240.222 30.7276L240.238 31.6063L230.851 31.6789L230.822 30.1166C230.567 30.436 230.255 30.7232 229.886 30.9783C229.524 31.2334 229.122 31.4522 228.677 31.6346C228.241 31.8089 227.768 31.9427 227.257 32.0362C226.754 32.1296 226.234 32.1784 225.697 32.1825C224.582 32.1912 223.66 32.0518 222.93 31.7645C222.208 31.4852 221.635 31.0828 221.21 30.5571C220.784 30.0233 220.483 29.3787 220.306 28.6232C220.129 27.8678 220.031 27.0182 220.013 26.0743L219.879 19.0566ZM243.072 18.8773L240.935 18.8938L240.919 18.0151L243.055 17.9986C243.877 17.9922 244.611 17.8482 245.256 17.5666C245.91 17.2767 246.46 16.9062 246.908 16.4552C247.363 15.996 247.707 15.4847 247.94 14.9214C248.174 14.3581 248.285 13.7957 248.274 13.2343L250.228 13.2192L250.318 17.9425L254.248 17.9121L254.265 18.7908L250.335 18.8212L250.478 26.3394C250.495 27.21 250.553 27.9216 250.653 28.4742C250.761 29.0186 250.904 29.4447 251.081 29.7526C251.266 30.0604 251.477 30.2703 251.715 30.3824C251.961 30.4863 252.231 30.5371 252.524 30.5348C252.809 30.5326 253.084 30.4695 253.351 30.3454C253.617 30.2131 253.849 30.0079 254.047 29.7296C254.245 29.4433 254.401 29.0759 254.514 28.6274C254.627 28.1708 254.678 27.613 254.665 26.954C254.662 26.7994 254.655 26.6407 254.644 26.4781C254.633 26.3073 254.617 26.1324 254.597 25.9535L255.623 25.9456C255.655 26.3523 255.674 26.7224 255.681 27.056C255.7 28.073 255.573 28.9041 255.301 29.5491C255.036 30.1858 254.647 30.6853 254.133 31.0473C253.619 31.4093 252.989 31.6583 252.243 31.7943C251.505 31.9302 250.672 32.0017 249.744 32.0089C248.703 32.017 247.781 31.9224 246.98 31.7251C246.178 31.5279 245.501 31.2117 244.947 30.7765C244.393 30.3332 243.971 29.7627 243.681 29.0651C243.391 28.3675 243.237 27.5183 243.218 26.5175L243.072 18.8773ZM257.547 28.2744C257.535 27.6479 257.643 27.11 257.87 26.6606C258.098 26.2032 258.424 25.8182 258.85 25.5057C259.275 25.185 259.787 24.9288 260.385 24.737C260.984 24.5371 261.648 24.3814 262.379 24.2699C263.117 24.1584 263.909 24.0831 264.755 24.0441C265.6 23.9968 266.479 23.9697 267.39 23.9627L267.377 23.2792C267.357 22.2377 267.268 21.4043 267.11 20.7789C266.959 20.1535 266.735 19.6751 266.435 19.3437C266.144 19.0123 265.786 18.7995 265.361 18.7051C264.936 18.6026 264.442 18.5535 263.881 18.5578C263.58 18.5602 263.259 18.5871 262.918 18.6385C262.585 18.6899 262.289 18.7492 262.03 18.8163C262.405 18.8541 262.753 18.945 263.073 19.089C263.393 19.233 263.669 19.4139 263.901 19.6319C264.134 19.8498 264.313 20.0925 264.44 20.3601C264.576 20.6276 264.646 20.8997 264.651 21.1763C264.658 21.518 264.578 21.8401 264.413 22.1425C264.248 22.4448 264.017 22.7111 263.721 22.9413C263.424 23.1633 263.077 23.3409 262.681 23.4742C262.285 23.6074 261.859 23.6758 261.403 23.6794C260.947 23.6829 260.519 23.6211 260.117 23.494C259.724 23.3668 259.375 23.1946 259.07 22.9772C258.772 22.7516 258.535 22.489 258.359 22.1893C258.182 21.8895 258.091 21.5688 258.084 21.2271C258.075 20.7714 258.19 20.3596 258.427 19.9915C258.672 19.6234 259.004 19.2994 259.421 19.0195C259.847 18.7314 260.347 18.4834 260.921 18.2755C261.503 18.0676 262.127 17.896 262.791 17.7606C263.456 17.6253 264.146 17.5264 264.861 17.4639C265.584 17.3932 266.304 17.3551 267.02 17.3495C268.289 17.3397 269.394 17.4207 270.333 17.5925C271.28 17.7561 272.067 18.0592 272.694 18.5019C273.329 18.9365 273.809 19.539 274.133 20.3096C274.457 21.0721 274.63 22.0432 274.652 23.223L274.75 28.3368C274.762 28.947 274.832 29.4185 274.96 29.7511C275.097 30.0756 275.336 30.2365 275.678 30.2338C275.849 30.2325 275.986 30.1786 276.09 30.072C276.201 29.9572 276.284 29.8101 276.338 29.6306C276.399 29.4511 276.44 29.2433 276.46 29.0071C276.48 28.771 276.488 28.5309 276.483 28.2868L276.46 27.0785L277.546 27.0701L277.569 28.2784C277.582 28.9293 277.507 29.4792 277.344 29.928C277.19 30.3768 276.908 30.7411 276.498 31.0209C276.097 31.3007 275.551 31.5002 274.862 31.6195C274.181 31.7468 273.319 31.8145 272.277 31.8226C271.748 31.8267 271.252 31.802 270.787 31.7486C270.33 31.6952 269.909 31.6008 269.524 31.4654C269.147 31.33 268.818 31.1495 268.537 30.9238C268.256 30.6981 268.03 30.415 267.861 30.0745C267.624 30.4507 267.305 30.7583 266.902 30.9974C266.5 31.2284 266.064 31.4108 265.594 31.5446C265.125 31.6785 264.65 31.7676 264.171 31.812C263.692 31.8645 263.253 31.8923 262.854 31.8954C261.902 31.9027 261.09 31.8073 260.419 31.609C259.748 31.4189 259.202 31.1587 258.78 30.8283C258.359 30.4979 258.05 30.1137 257.855 29.6758C257.659 29.2297 257.557 28.7626 257.547 28.2744ZM264.588 28.0857C264.599 28.6878 264.719 29.1752 264.946 29.5478C265.172 29.9122 265.538 30.0925 266.042 30.0886C266.466 30.0853 266.813 29.9321 267.084 29.6289C267.354 29.3176 267.485 28.9056 267.475 28.393L267.412 25.0855C266.826 25.09 266.347 25.1466 265.974 25.2553C265.602 25.364 265.308 25.5371 265.093 25.7748C264.886 26.0042 264.745 26.3105 264.671 26.6935C264.605 27.0765 264.578 27.5406 264.588 28.0857Z" fill="#E0004D"/>
</svg>
